# xmcd
#
# Track frame offsets:
#	150
#	15733
#	31889
#	52896
#	74080
#	90387
#	108425
#	123455
#	142584
#	159974
#	176781
#	193058
#	211494
#	232890
#	249759
#
# Disc length: 3566 seconds
#
# Revision: 2
# Processed by: cddbd v1.5.2PL0 Copyright (c) Steve Scherf et al.
# Submitted via: audiograbber 1.83.01
#
DISCID=bf0dec0f
DTITLE=VARIUS - CB60319
DYEAR=2004
DGENRE=
TTITLE0=GEORGE STRAIT - HONK IF YOU HONKY TONK
TTITLE1=KEITH URBAN - YOU'LL THINK OF ME
TTITLE2=LEANN RIMES - THIS LOVE
TTITLE3=TOBY KEITH - AMERICAN SOLDIER
TTITLE4=MARTY STUART - TOO MUCH MONTH (AT THE END OF MONEY)
TTITLE5=CAROLYN DAWN JOHNSON - SIMPLE LIFE
TTITLE6=KENNY ROGERS - HANDPRINTS ON THE WALL
TTITLE7=CHAD BROCK - YOU ARE
TTITLE8=RACHEL PROCTOR - DIDN'T I
TTITLE9=CLAY WALKER - I CAN'T SLEEP
TTITLE10=GARY ALLAN - SONGS ABOUT RAIN
TTITLE11=REBA MCENTIRE - ROOM TO BREATHE
TTITLE12=COLT PRATHER - NOT A BRICK OUT OF PLACE
TTITLE13=CLEDUS T JUDD - THE CHICKS DID IT
TTITLE14=ROXIE DEAN - WOMAN KNOW WOMAN
EXTD=
EXTT0=
EXTT1=
EXTT2=
EXTT3=
EXTT4=
EXTT5=
EXTT6=
EXTT7=
EXTT8=
EXTT9=
EXTT10=
EXTT11=
EXTT12=
EXTT13=
EXTT14=
PLAYORDER=
